<?xml version="1.0" encoding="UTF-8" standalone="no"?>
<!DOCTYPE svg PUBLIC "-//W3C//DTD SVG 1.1//EN"
 "http://www.w3.org/Graphics/SVG/1.1/DTD/svg11.dtd">
<!-- Generated by graphviz version 2.43.0 (0)
 -->
<!-- Title: Animals::Dog Pages: 1 -->
<svg width="133pt" height="220pt"
 viewBox="0.00 0.00 133.00 220.00" xmlns="http://www.w3.org/2000/svg" xmlns:xlink="http://www.w3.org/1999/xlink">
<g id="graph0" class="graph" transform="scale(1 1) rotate(0) translate(4 216)">
<title>Animals::Dog</title>
<!-- Node1 -->
<g id="node1" class="node">
<title>Node1</title>
<g id="a_node1"><a xlink:title="A Dog class.">
<polygon fill="#bfbfbf" stroke="black" points="11,-0.5 11,-19.5 93,-19.5 93,-0.5 11,-0.5"/>
<text text-anchor="middle" x="52" y="-7.5" font-family="Helvetica,sans-Serif" font-size="10.00">Animals::Dog</text>
</a>
</g>
</g>
<!-- Node2 -->
<g id="node2" class="node">
<title>Node2</title>
<g id="a_node2"><a xlink:href="classAnimals_1_1Animal.html" target="_top" xlink:title="An animal base class.">
<polygon fill="none" stroke="black" points="3.5,-57.5 3.5,-76.5 100.5,-76.5 100.5,-57.5 3.5,-57.5"/>
<text text-anchor="middle" x="52" y="-64.5" font-family="Helvetica,sans-Serif" font-size="10.00">Animals::Animal</text>
</a>
</g>
</g>
<!-- Node2&#45;&gt;Node1 -->
<g id="edge1" class="edge">
<title>Node2&#45;&gt;Node1</title>
<path fill="none" stroke="midnightblue" d="M52,-47.12C52,-37.82 52,-27.06 52,-19.71"/>
<polygon fill="midnightblue" stroke="midnightblue" points="48.5,-47.41 52,-57.41 55.5,-47.41 48.5,-47.41"/>
</g>
<!-- Node3 -->
<g id="node3" class="node">
<title>Node3</title>
<g id="a_node3"><a xlink:title=" ">
<polygon fill="none" stroke="#bfbfbf" points="19.5,-124.5 19.5,-143.5 84.5,-143.5 84.5,-124.5 19.5,-124.5"/>
<text text-anchor="middle" x="52" y="-131.5" font-family="Helvetica,sans-Serif" font-size="10.00">std::string</text>
</a>
</g>
</g>
<!-- Node3&#45;&gt;Node2 -->
<g id="edge2" class="edge">
<title>Node3&#45;&gt;Node2</title>
<path fill="none" stroke="#9a32cd" stroke-dasharray="5,2" d="M52,-114.04C52,-101.67 52,-86.12 52,-76.63"/>
<polygon fill="#9a32cd" stroke="#9a32cd" points="48.5,-114.23 52,-124.23 55.5,-114.23 48.5,-114.23"/>
<text text-anchor="middle" x="88.5" y="-98" font-family="Helvetica,sans-Serif" font-size="10.00"> publicMember</text>
</g>
<!-- Node4 -->
<g id="node4" class="node">
<title>Node4</title>
<g id="a_node4"><a xlink:title=" ">
<polygon fill="none" stroke="#bfbfbf" points="0,-181.5 0,-211.5 104,-211.5 104,-181.5 0,-181.5"/>
<text text-anchor="start" x="8" y="-199.5" font-family="Helvetica,sans-Serif" font-size="10.00">std::basic_string&lt;</text>
<text text-anchor="middle" x="52" y="-188.5" font-family="Helvetica,sans-Serif" font-size="10.00"> Char &gt;</text>
</a>
</g>
</g>
<!-- Node4&#45;&gt;Node3 -->
<g id="edge3" class="edge">
<title>Node4&#45;&gt;Node3</title>
<path fill="none" stroke="midnightblue" d="M52,-171.35C52,-161.51 52,-150.78 52,-143.54"/>
<polygon fill="midnightblue" stroke="midnightblue" points="48.5,-171.47 52,-181.47 55.5,-171.47 48.5,-171.47"/>
</g>
</g>
</svg>
