<?xml version="1.0" encoding="UTF-8" standalone="no"?>
<!DOCTYPE svg PUBLIC "-//W3C//DTD SVG 1.1//EN"
 "http://www.w3.org/Graphics/SVG/1.1/DTD/svg11.dtd">
<!-- Generated by graphviz version 2.43.0 (0)
 -->
<!-- Title: Animals::Corgi Pages: 1 -->
<svg width="133pt" height="277pt"
 viewBox="0.00 0.00 133.00 277.00" xmlns="http://www.w3.org/2000/svg" xmlns:xlink="http://www.w3.org/1999/xlink">
<g id="graph0" class="graph" transform="scale(1 1) rotate(0) translate(4 273)">
<title>Animals::Corgi</title>
<!-- Node1 -->
<g id="node1" class="node">
<title>Node1</title>
<g id="a_node1"><a xlink:title="A Corgi class.">
<polygon fill="#bfbfbf" stroke="black" points="8,-0.5 8,-19.5 96,-19.5 96,-0.5 8,-0.5"/>
<text text-anchor="middle" x="52" y="-7.5" font-family="Helvetica,sans-Serif" font-size="10.00">Animals::Corgi</text>
</a>
</g>
</g>
<!-- Node2 -->
<g id="node2" class="node">
<title>Node2</title>
<g id="a_node2"><a xlink:href="classAnimals_1_1Dog.html" target="_top" xlink:title="A Dog class.">
<polygon fill="none" stroke="black" points="11,-57.5 11,-76.5 93,-76.5 93,-57.5 11,-57.5"/>
<text text-anchor="middle" x="52" y="-64.5" font-family="Helvetica,sans-Serif" font-size="10.00">Animals::Dog</text>
</a>
</g>
</g>
<!-- Node2&#45;&gt;Node1 -->
<g id="edge1" class="edge">
<title>Node2&#45;&gt;Node1</title>
<path fill="none" stroke="midnightblue" d="M52,-47.12C52,-37.82 52,-27.06 52,-19.71"/>
<polygon fill="midnightblue" stroke="midnightblue" points="48.5,-47.41 52,-57.41 55.5,-47.41 48.5,-47.41"/>
</g>
<!-- Node3 -->
<g id="node3" class="node">
<title>Node3</title>
<g id="a_node3"><a xlink:href="classAnimals_1_1Animal.html" target="_top" xlink:title="An animal base class.">
<polygon fill="none" stroke="black" points="3.5,-114.5 3.5,-133.5 100.5,-133.5 100.5,-114.5 3.5,-114.5"/>
<text text-anchor="middle" x="52" y="-121.5" font-family="Helvetica,sans-Serif" font-size="10.00">Animals::Animal</text>
</a>
</g>
</g>
<!-- Node3&#45;&gt;Node2 -->
<g id="edge2" class="edge">
<title>Node3&#45;&gt;Node2</title>
<path fill="none" stroke="midnightblue" d="M52,-104.12C52,-94.82 52,-84.06 52,-76.71"/>
<polygon fill="midnightblue" stroke="midnightblue" points="48.5,-104.41 52,-114.41 55.5,-104.41 48.5,-104.41"/>
</g>
<!-- Node4 -->
<g id="node4" class="node">
<title>Node4</title>
<g id="a_node4"><a xlink:title=" ">
<polygon fill="none" stroke="#bfbfbf" points="19.5,-181.5 19.5,-200.5 84.5,-200.5 84.5,-181.5 19.5,-181.5"/>
<text text-anchor="middle" x="52" y="-188.5" font-family="Helvetica,sans-Serif" font-size="10.00">std::string</text>
</a>
</g>
</g>
<!-- Node4&#45;&gt;Node3 -->
<g id="edge3" class="edge">
<title>Node4&#45;&gt;Node3</title>
<path fill="none" stroke="#9a32cd" stroke-dasharray="5,2" d="M52,-171.04C52,-158.67 52,-143.12 52,-133.63"/>
<polygon fill="#9a32cd" stroke="#9a32cd" points="48.5,-171.23 52,-181.23 55.5,-171.23 48.5,-171.23"/>
<text text-anchor="middle" x="88.5" y="-155" font-family="Helvetica,sans-Serif" font-size="10.00"> publicMember</text>
</g>
<!-- Node5 -->
<g id="node5" class="node">
<title>Node5</title>
<g id="a_node5"><a xlink:title=" ">
<polygon fill="none" stroke="#bfbfbf" points="0,-238.5 0,-268.5 104,-268.5 104,-238.5 0,-238.5"/>
<text text-anchor="start" x="8" y="-256.5" font-family="Helvetica,sans-Serif" font-size="10.00">std::basic_string&lt;</text>
<text text-anchor="middle" x="52" y="-245.5" font-family="Helvetica,sans-Serif" font-size="10.00"> Char &gt;</text>
</a>
</g>
</g>
<!-- Node5&#45;&gt;Node4 -->
<g id="edge4" class="edge">
<title>Node5&#45;&gt;Node4</title>
<path fill="none" stroke="midnightblue" d="M52,-228.35C52,-218.51 52,-207.78 52,-200.54"/>
<polygon fill="midnightblue" stroke="midnightblue" points="48.5,-228.47 52,-238.47 55.5,-228.47 48.5,-228.47"/>
</g>
</g>
</svg>
